# xmcd CD database file
#
# Track frame offsets:
#	150
#	15384
#	32716
#	51071
#	66655
#	80543
#	95154
#	113298
#	134147
#	150377
#
# Disc length: 2223 seconds
#
# Revision: 0
# Processed by: cddbd v1.5.2PL0 Copyright (c) Steve Scherf et al.
# Submitted via: CDex 1.40Release
#
DISCID=7e08ad0a
DTITLE=Tumbleweed - God blessed Texas
DYEAR=1900
DGENRE=Country
TTITLE0=Killin' Time
TTITLE1=Love Bug
TTITLE2=More Of You
TTITLE3=Gog Blessed Texas
TTITLE4=Badley Bend
TTITLE5=Daddys Money
TTITLE6=Tennessee Whiskey
TTITLE7=Thousand Miles From Nowhere
TTITLE8=Adalida
TTITLE9=Western Girl
EXTD=ID3G: 2
EXTT0=
EXTT1=
EXTT2=
EXTT3=
EXTT4=
EXTT5=
EXTT6=
EXTT7=
EXTT8=
EXTT9=
PLAYORDER=
